<svg id="Layer_1" data-name="Layer 1" xmlns="http://www.w3.org/2000/svg" xmlns:xlink="http://www.w3.org/1999/xlink" viewBox="0 0 500 500"><defs><style>.cls-1{fill:none;}.cls-2{fill:url(#linear-gradient);}.cls-3{fill:#fff;}.cls-4{fill:url(#linear-gradient-2);}.cls-5{fill:#09006e;}.cls-6{fill:url(#linear-gradient-3);}.cls-7{clip-path:url(#clip-path);}.cls-8{isolation:isolate;}.cls-9{clip-path:url(#clip-path-2);}</style><linearGradient id="linear-gradient" x1="-12.75" y1="512.75" x2="491.39" y2="8.61" gradientUnits="userSpaceOnUse"><stop offset="0.04" stop-color="#09006e"/><stop offset="0.13" stop-color="#080e74"/><stop offset="0.29" stop-color="#073484"/><stop offset="0.53" stop-color="#05709d"/><stop offset="0.81" stop-color="#02c3c0"/><stop offset="1" stop-color="#00ffd9"/></linearGradient><linearGradient id="linear-gradient-2" x1="-102.93" y1="604.05" x2="-102.61" y2="604.05" gradientTransform="matrix(312.47, 0, 0, -61.3, 32512.53, 37199.67)" gradientUnits="userSpaceOnUse"><stop offset="0.15" stop-color="#09006e"/><stop offset="1" stop-color="#00ffd9"/></linearGradient><linearGradient id="linear-gradient-3" x1="-103.31" y1="604.05" x2="-102.46" y2="604.05" gradientTransform="matrix(119.55, -207.07, -53.09, -30.65, 44676.34, -2601.2)" gradientUnits="userSpaceOnUse"><stop offset="0" stop-color="#09006e"/><stop offset="0.45" stop-color="#064e8f"/><stop offset="1" stop-color="#00ffd9"/></linearGradient><clipPath id="clip-path"><rect class="cls-1" x="-1201.66" y="-618.16" width="3430.18" height="2079.1"/></clipPath><clipPath id="clip-path-2"><rect class="cls-1" x="-2.44" y="-2.44" width="504.88" height="504.88"/></clipPath></defs><circle class="cls-2" cx="250" cy="250" r="250"/><circle id="Oval" class="cls-3" cx="250" cy="247.33" r="163"/><rect id="Rectangle" class="cls-4" x="183.1" y="142.93" width="269.49" height="52.87" rx="26.44" transform="translate(12.24 359.94) rotate(-60)"/><polygon id="M" class="cls-5" points="302.26 335.3 301.75 252.77 262.42 319 235.51 319 196.18 255.61 196.18 335.3 140.56 335.3 140.56 154.19 190.75 154.19 249.74 250.7 307.18 154.19 357.37 154.19 357.89 335.3 302.26 335.3"/><path id="Rectangle-2" data-name="Rectangle" class="cls-6" d="M246.9,239.36l76.68-132.79a26.43,26.43,0,0,1,36.11-9.68h0A26.44,26.44,0,0,1,369.36,133L292.69,265.8a26.44,26.44,0,0,1-36.11,9.68h0A26.46,26.46,0,0,1,246.9,239.36Z"/></svg>