<svg id="Layer_1" data-name="Layer 1" xmlns="http://www.w3.org/2000/svg" xmlns:xlink="http://www.w3.org/1999/xlink" viewBox="0 0 400 443.19"><defs><style>.cls-1{fill:#fff;}.cls-2{fill:url(#linear-gradient);}.cls-3{fill:#09006e;}.cls-4{fill:url(#linear-gradient-2);}</style><linearGradient id="linear-gradient" x1="99.62" y1="604.15" x2="100" y2="604.15" gradientTransform="matrix(312.47, 0, 0, -61.3, -30755.05, 37212.95)" gradientUnits="userSpaceOnUse"><stop offset="0.15" stop-color="#09006e"/><stop offset="1" stop-color="#00ffd9"/></linearGradient><linearGradient id="linear-gradient-2" x1="99" y1="604.15" x2="100.04" y2="604.15" gradientTransform="matrix(119.55, -207.07, -53.09, -30.65, 20497.34, 39324.73)" gradientUnits="userSpaceOnUse"><stop offset="0" stop-color="#09006e"/><stop offset="0.45" stop-color="#064e8f"/><stop offset="1" stop-color="#00ffd9"/></linearGradient></defs><circle id="Oval" class="cls-1" cx="200" cy="243.19" r="200"/><rect id="Rectangle" class="cls-2" x="167.91" y="143.5" width="330.66" height="64.87" rx="32.44" transform="translate(-35.74 348.16) rotate(-60)"/><polygon id="M" class="cls-3" points="264.13 351.13 263.49 249.86 215.24 331.13 182.22 331.13 133.97 253.35 133.97 351.13 65.71 351.13 65.71 128.91 127.3 128.91 199.68 247.32 270.16 128.91 331.75 128.91 332.38 351.13 264.13 351.13"/><path id="Rectangle-2" data-name="Rectangle" class="cls-4" d="M246.2,261.82,340.28,98.88A32.42,32.42,0,0,1,384.58,87h0a32.43,32.43,0,0,1,11.88,44.3L302.38,294.25a32.44,32.44,0,0,1-44.31,11.88h0A32.45,32.45,0,0,1,246.2,261.82Z" transform="translate(-50 -28.4)"/></svg>