<svg id="Layer_1" data-name="Layer 1" xmlns="http://www.w3.org/2000/svg" xmlns:xlink="http://www.w3.org/1999/xlink" viewBox="0 0 500 500"><defs><style>.cls-1{fill:none;}.cls-2{fill:#fff;}.cls-3{clip-path:url(#clip-path);}.cls-4{isolation:isolate;}.cls-5{clip-path:url(#clip-path-2);}.cls-6{fill:url(#linear-gradient);}.cls-7{fill:#09006e;}.cls-8{fill:url(#linear-gradient-2);}</style><clipPath id="clip-path"><rect class="cls-1" x="-1201.66" y="-618.16" width="3430.18" height="2079.1"/></clipPath><clipPath id="clip-path-2"><rect class="cls-1" x="-2.44" y="-2.44" width="504.88" height="504.88"/></clipPath><linearGradient id="linear-gradient" x1="-103.36" y1="605.74" x2="-102.8" y2="605.74" gradientTransform="matrix(119.55, -207.07, -53.09, -30.65, 44659.34, -2595.2)" gradientUnits="userSpaceOnUse"><stop offset="0" stop-color="#09006e"/><stop offset="0.66" stop-color="#064e8f"/><stop offset="0.68" stop-color="#056197"/><stop offset="0.74" stop-color="#0491ab"/><stop offset="0.8" stop-color="#02b9bc"/><stop offset="0.85" stop-color="#01d7c8"/><stop offset="0.9" stop-color="#01edd2"/><stop offset="0.95" stop-color="#00fbd7"/><stop offset="1" stop-color="#00ffd9"/></linearGradient><linearGradient id="linear-gradient-2" x1="-103.5" y1="605.74" x2="-102.94" y2="605.74" gradientTransform="matrix(119.55, -207.07, -53.09, -30.65, 44659.34, -2595.2)" gradientUnits="userSpaceOnUse"><stop offset="0" stop-color="#09006e"/><stop offset="0.17" stop-color="#08227c"/><stop offset="0.37" stop-color="#064e8f"/><stop offset="0.4" stop-color="#056197"/><stop offset="0.48" stop-color="#0491ab"/><stop offset="0.56" stop-color="#02b9bc"/><stop offset="0.63" stop-color="#01d7c8"/><stop offset="0.71" stop-color="#01edd2"/><stop offset="0.78" stop-color="#00fbd7"/><stop offset="0.85" stop-color="#00ffd9"/></linearGradient></defs><circle class="cls-2" cx="250" cy="250" r="250"/><path id="Rectangle" class="cls-6" d="M136.92,217.06l50.41-87.31a17.38,17.38,0,0,1,23.74-6.36h0a17.38,17.38,0,0,1,6.36,23.74L167,234.44a17.38,17.38,0,0,1-23.74,6.36h0A17.38,17.38,0,0,1,136.92,217.06Z"/><path id="MXC" class="cls-7" d="M156.31,309,156,254.78l-25.85,43.55H112.43L86.57,256.65V309H50V190H83l38.78,63.45L159.54,190h33L192.88,309Zm131.31,0L267,277.23,247,309H201.22l43-60-41.5-59h45.07l20.24,29.94L287.79,190H331l-41.33,57.5L333.55,309Zm111.3,0a69.22,69.22,0,0,1-32.53-7.56,56.53,56.53,0,0,1-22.69-21.15,62,62,0,0,1,0-61.65,56.58,56.58,0,0,1,22.69-21.14A69.22,69.22,0,0,1,398.92,190q16.6,0,29.61,5.85A54.91,54.91,0,0,1,450,212.75l-24.24,21.63Q415.2,221,400.88,221q-12,0-19.36,7.73t-7.32,20.74q0,13,7.32,20.74T400.88,278q14.31,0,24.88-13.33L450,286.27a55.09,55.09,0,0,1-21.47,16.92Q415.51,309,398.92,309Z"/><path id="Rectangle-2" data-name="Rectangle" class="cls-8" d="M119.92,246l50.4-87.3a17.37,17.37,0,0,1,23.74-6.36h0a17.38,17.38,0,0,1,6.36,23.74L150,263.35a17.38,17.38,0,0,1-23.74,6.36h0A17.37,17.37,0,0,1,119.92,246Z"/></svg>