<svg id="Layer_1" data-name="Layer 1" xmlns="http://www.w3.org/2000/svg" xmlns:xlink="http://www.w3.org/1999/xlink" viewBox="0 0 500 500"><defs><style>.cls-1,.cls-2{fill:none;}.cls-1{clip-rule:evenodd;}.cls-3{fill:url(#linear-gradient);}.cls-4{fill:#fff;}.cls-5{fill:url(#linear-gradient-2);}.cls-6{fill:#09006e;}.cls-7{fill:url(#linear-gradient-3);}.cls-8{clip-path:url(#clip-path);}.cls-9{clip-path:url(#clip-path-2);}.cls-10{isolation:isolate;}.cls-11{clip-path:url(#clip-path-3);}</style><linearGradient id="linear-gradient" x1="1.04" y1="500.56" x2="1.45" y2="500.97" gradientTransform="matrix(1024, 0, 0, -1024, -1023, 513025)" gradientUnits="userSpaceOnUse"><stop offset="0" stop-color="#09006e"/><stop offset="1" stop-color="#00ffd9"/></linearGradient><linearGradient id="linear-gradient-2" x1="-102.87" y1="603.97" x2="-102.5" y2="603.97" gradientTransform="matrix(312.47, 0, 0, -61.3, 32509.49, 37184.94)" gradientUnits="userSpaceOnUse"><stop offset="0.15" stop-color="#09006e"/><stop offset="1" stop-color="#00ffd9"/></linearGradient><linearGradient id="linear-gradient-3" x1="-103.33" y1="603.97" x2="-102.34" y2="603.97" gradientTransform="matrix(119.55, -207.07, -53.09, -30.65, 44676.34, -2601.2)" gradientUnits="userSpaceOnUse"><stop offset="0" stop-color="#09006e"/><stop offset="0.45" stop-color="#064e8f"/><stop offset="1" stop-color="#00ffd9"/></linearGradient><clipPath id="clip-path"><path class="cls-1" d="M174.32,0H325.68C375.87,0,401,0,428,8.54A106.2,106.2,0,0,1,491.46,72C500,99,500,124.13,500,174.32V325.68c0,50.2,0,75.29-8.54,102.31A106.16,106.16,0,0,1,428,491.45C401,500,375.87,500,325.68,500H174.32C124.12,500,99,500,72,491.45A106.16,106.16,0,0,1,8.54,428C0,401,0,375.88,0,325.68V174.32C0,124.13,0,99,8.54,72A106.2,106.2,0,0,1,72,8.54C99,0,124.12,0,174.32,0"/></clipPath><clipPath id="clip-path-2"><rect class="cls-2" x="-1201.66" y="-618.16" width="3430.18" height="2079.1"/></clipPath><clipPath id="clip-path-3"><rect class="cls-2" x="-2.44" y="-2.44" width="504.88" height="504.88"/></clipPath></defs><rect id="Base" class="cls-3" width="500" height="500" rx="114"/><circle id="Oval" class="cls-4" cx="250" cy="250.25" r="190"/><rect id="Rectangle" class="cls-5" x="172.02" y="128.56" width="314.12" height="61.63" rx="30.81" transform="translate(26.52 364.68) rotate(-60)"/><polygon id="M" class="cls-6" points="310.92 352.79 310.32 256.58 264.48 333.79 233.11 333.79 187.27 259.9 187.27 352.79 122.43 352.79 122.43 141.68 180.94 141.68 249.7 254.17 316.65 141.68 375.16 141.68 375.76 352.79 310.92 352.79"/><path id="Rectangle-2" data-name="Rectangle" class="cls-7" d="M246.39,241,335.76,86.17a30.82,30.82,0,0,1,42.1-11.28h0A30.81,30.81,0,0,1,389.13,117L299.76,271.77a30.81,30.81,0,0,1-42.09,11.28h0A30.81,30.81,0,0,1,246.39,241Z"/></svg>